<svg xmlns="http://www.w3.org/2000/svg" viewBox="0 0 164.5 153.5" width="150" height="150"><style>.st1{fill:#9a2828}</style><circle cx="89.3" cy="88.3" r="63.3" fill="#f0f0f0"/><path class="st1" d="M117.4 136.1H68.9c-.8 0-1.4-.6-1.4-1.4V105c0-.8.6-1.4 1.4-1.4h48.5c.8 0 1.4.6 1.4 1.4v29.7c0 .7-.6 1.4-1.4 1.4zm-47.1-2.9H116v-26.9H70.3v26.9z"/><path class="st1" d="M71.1 145.9c-.8 0-1.4-.6-1.4-1.4v-9.8c0-.8.6-1.4 1.4-1.4.8 0 1.4.6 1.4 1.4v9.8c0 .8-.6 1.4-1.4 1.4zm45.2.1c-.8 0-1.4-.6-1.4-1.4v-9.8c0-.8.6-1.4 1.4-1.4.8 0 1.4.6 1.4 1.4v9.8c0 .8-.6 1.4-1.4 1.4zm-.3-24.6h-13.6c-.8 0-1.4-.6-1.4-1.4s.6-1.4 1.4-1.4H116c.8 0 1.4.6 1.4 1.4s-.6 1.4-1.4 1.4zm.4 7.8h-10.6c-.8 0-1.4-.6-1.4-1.4s.6-1.4 1.4-1.4h10.6c.8 0 1.4.6 1.4 1.4s-.6 1.4-1.4 1.4zm.1-16.2H97c-.8 0-1.4-.6-1.4-1.4 0-.8.6-1.4 1.4-1.4h19.5c.8 0 1.4.6 1.4 1.4 0 .8-.6 1.4-1.4 1.4z"/><circle class="st1" cx="76.4" cy="126.2" r="3.8"/><path class="st1" d="M72.8 106.1c-.2 0-.5-.1-.7-.2-.7-.4-.9-1.2-.6-1.9-1.2-1-3.4-2.9-7.5-6.9-.9-.8-1.6-1.5-2.1-2-8-7.4-10.5-19.1-6.2-29.1 1.2-2.9 3.9-4.6 6.9-4.7-.3-2.7.8-5.4 3-7.1C72.8 48.7 81.8 48 90 52l-9-41c-.4-2-.1-4 1-5.7 1.1-1.7 2.8-2.9 4.8-3.3 2-.4 4-.1 5.7 1 1.7 1.1 2.9 2.8 3.3 4.8l6.8 30.9.8-23.7c.1-4.2 3.6-7.5 7.8-7.4 4.2.1 7.5 3.7 7.4 7.9l.3 28.1 3.4-14.4c0-.1 0-.1.1-.2 1.5-3.9 5.8-6 9.7-4.5 3.8 1.4 5.8 5.7 4.5 9.6-.3 3.5-4.3 44.9-21 70.7-.4.7-1.3.8-2 .4s-.9-1.3-.4-2C130 77.3 133.8 34 133.8 33.5c0-.1 0-.3.1-.4.9-2.5-.3-5.2-2.8-6.1-2.5-.9-5.1.3-6.1 2.8l-6 25.9c-.2.7-.8 1.2-1.5 1.1-.7-.1-1.3-.7-1.3-1.4l-.4-40c.1-2.7-2-4.9-4.6-5-2.6-.1-4.8 2-4.9 4.6l-1.2 35c0 .7-.6 1.3-1.3 1.4-.7.1-1.4-.4-1.5-1.1l-9.2-42c-.3-1.2-1-2.3-2.1-3s-2.4-.9-3.6-.6c-1.2.3-2.3 1-3 2.1-.7 1.1-.9 2.4-.6 3.6l9.7 44.1c.1.6-.1 1.1-.6 1.5-.5.3-1.1.3-1.6 0-7.9-5-16.9-4.8-24.1.5-1.8 1.4-2.4 3.8-1.4 5.9.2.5.2 1.1-.2 1.5-.4.4-1 .6-1.5.4-2.4-.7-4.8.4-5.8 2.7-3.8 9-1.6 19.4 5.5 26 .5.5 1.3 1.2 2.1 2 2.3 2.2 7 6.6 7.9 7.2.4.1.6.4.8.7.2.4.2.9 0 1.2l-.6 1.1c-.2.6-.7.9-1.2.9zm1.1-3.8zm-.2-.1zm5.9-12.5c-3.3 0-6.7-1.2-9.3-3.7-4.2-3.9-5.5-10-3.3-15.2.5-1.3.5-2.7-.1-3.9-.2-.5-.2-1.1.2-1.5.4-.4 1-.6 1.5-.4 1.5.4 3.1.2 4.3-.7 3.1-2.4 6.7-2.9 10.4-1.6 2.4.9 4.3 2.4 5.5 3.5 2.7 2.5 4.2 5.8 4.3 9.5.1 3.6-1.2 7.1-3.6 9.7-2.6 2.8-6.2 4.3-9.9 4.3zM70.2 68c.2 1.3 0 2.7-.5 3.9-1.7 4.1-.7 9 2.6 12 4.3 4 11.2 3.8 15.2-.5 2-2.1 3-4.8 2.9-7.7-.1-2.9-1.3-5.5-3.4-7.5-.8-.8-2.5-2.2-4.6-2.9-2.7-1-5.3-.6-7.7 1.2-1.3.9-2.9 1.4-4.5 1.5zm-1.8 3.3z"/><path class="st1" d="M68.5 67.8c-.3 0-.7-.1-1-.4l-4.1-3.8c-.6-.5-.6-1.4-.1-2 .5-.6 1.4-.6 2-.1l4.1 3.8c.6.5.6 1.4.1 2-.3.4-.6.5-1 .5z"/></svg>