<svg id="Layer_1" xmlns="http://www.w3.org/2000/svg" viewBox="0 0 177.3 127.3" width="177" height="127"><style>.st5{fill:#97201d}.st6{fill:#322b21}</style><path d="M69.8 63.7c-2.8 0-5 2.2-5 5s2.2 5 5 5c2.7 0 5-2.2 5-5 0-2.7-2.2-5-5-5zm32.6 0c-2.8 0-5 2.2-5 5s2.2 5 5 5 5-2.2 5-5c0-2.7-2.2-5-5-5zm0 2.4c-1.4 0-2.6 1.2-2.6 2.6 0 1.4 1.1 2.6 2.6 2.6 1.4 0 2.6-1.2 2.6-2.6 0-1.4-1.1-2.6-2.6-2.6zM66.6 63c.1-.1.1-.3-.1-.3h-4.3c-2.2-.1-1.9 1.5-1.9 3.5 0 1.9-.2 3.4 2 3.4h1c0-.3-.1-.6-.1-.9 0-2.4 1.4-4.5 3.4-5.7zm45 6.7h-2.3c-.3 0-.7 0-.6-.4.5-2.9-1.1-5.2-2.1-5.9-1.2-.9-2.8-1.3-4.3-1.3-3.6 0-6.5 3-6.5 6.6 0 .3 0 .7.1 1H76.3c0-.3.1-.7.1-1 0-2.5-1.4-4.7-3.5-5.8-.1 0-.1-.2 0-.2h17.2c.3 0 .6-.3.6-.6l.1-19.6c0-.8.7-1.5 1.5-1.5 3.3-.1 8.5 0 8.5 0s.9 0 2 .4c2.4.8 4.4 3.7 6.3 6.1 1 1.1 2.1 2.5 2.9 3.6 1 1.3 1.9 2.7 2 3.9.2 2.3.3 5.5.4 8.7-.1 2.6.2 5.5-2.8 6zm-2.9-18.5c.4.6 1.1 1.2.7 1.9-.3.6-.8.5-.8.5H95c-.6 0-1.1-.5-1.1-1.1v-7.9c0-.6.4-1.2 1-1.2l3.6-.1h2.7c1.8.5 5.5 5 7.5 7.9zM69.8 66.1c-1.4 0-2.6 1.2-2.6 2.6 0 1.4 1.1 2.6 2.6 2.6s2.6-1.2 2.6-2.6c0-1.4-1.1-2.6-2.6-2.6z" fill-rule="evenodd" clip-rule="evenodd" fill="#322b21"/><path class="st5" d="M58.4 105.9c-2.6 1.1-4.2-1.5-7-.2-3 1.3-2.9 6.3-.6 8.8 1.8 1.9 6.5 1.9 9.3.6.8-.4 1.5-1 2.4-.9 0 .3-.2.5-.4.6-4.7 4-10.1 3.2-13.3 1-4.1-2.8-3.5-9.8.3-13.3 2.1-1.9 5.4-2.8 8-2.8 1.5 0 3.2 1.1 3.3 2.7.1 1.1 0 1.4-.3 2-.6 1.1-1.7 1.5-1.7 1.5z"/><path class="st5" d="M63.1 113.9c.7-.3 2.7-2.1 2.9-3.5.1-.7-.6-1.1-1.3-.7-1.2.8-1.9 2.7-1.6 4.2zm.4 1.1c.1.5.4.7.8.9 2.1.8 3.4.3 4.9-.1.9-.3 2.7-1.3 3.4-1.3.3-.1.1.2.2.4-1.7 1.8-6.2 3.2-8.7 3-2.7-.1-4-2.1-4.1-4.4-.1-2.2 1.1-4.7 3.2-5.7 2-1.1 4.8-1.2 5.7.2 1.7 2.5-1.3 7.3-4.9 7.2l-.5-.2z"/><path class="st5" d="M84.5 113.3c0 .9.9 1.9 2 1.7 1.7 0 2.7-.9 4.2-1.5.9-.4 1.1 0 .3.6-1.6 1.5-3.3 2.4-5.4 2.4h-.2c-2.6-.3-3.5-1.8-3.7-3.7l-.1-.7c-.2-1.1-.4-1.5-1-1.5-.8 0-3 2.7-3.8 4.1-1 1.8-1.5 3.3-2.3 5.6-1 3.1-1.2 5.9-3 5.7-.1 0-.2-.1-.3-.1-1-.3-.9-2.4-.7-4.1.8-5.7 2-13.2 3.6-18.1.4-1.2 1.4-2.2 2.7-2.2.9 0 1.6.7 1.6 2.3v.1c0 1.4-2.9 6.5-3.6 10.4 1.9-4.6 4.5-7.5 6-7.4 2.8.1 3.5 3.6 3.7 6.4z"/><path class="st5" d="M96 114.3c-.2-.8-.9-1.2-1.5-1.4-.4-.1-.5.5-.3.7.3.6 1.8.7 1.8.7zm-3.9-5.6s1.4-.3 2.8-1.3c1.6-1.2 2.9-3.6 1.8-4.3-.9-.5-2.1 1.2-2.8 2.3-.5.6-1.8 3.3-1.8 3.3zm-7.5-.6c.4.2 2.2.6 3.5.8.8.1 1.5.1 1.5.1s1.6-5.8 5-8.1c1.2-.9 3.5-1.4 4.3-.1.7 1.2.7 2.7.4 4.1-.8 3.6-4.5 5.5-7.6 6.2-.1 1 .1 2 .4 2.9.6 1.2 1.2 1.8 2.1 1.8.5 0 .8-.4.8-.4s-.4-.1-.9-.3c-.7-.3-1.6-1-1.6-1.7 0-.3 0-.6.6-1.2 1.1-1 3.9.4 4.1 2 1.1-.2 2.1-.5 3-.8.2-.1.1.1.1.2-.3.7-1.7 1.2-3.2 1.4v.1s-.2 1.9-1.7 2.5c-.6.2-1.4.4-2.3.3-.8-.1-1.1-.3-1.9-.8-2-1.3-2-5.8-2-5.8s-2-.5-2.7-1c-.3-.2-1.6-1.1-2.1-1.7-.2-.3 0-.6.2-.5z"/><path class="st5" d="M111.4 112.2c-.3.7-.5 1.5-.5 2.3 0 .8.5 1.6 1.4 1.9 1.2.1 2.8-1.3 3.4-1.8 1.1-.4.1.7-.3 1-.8.6-2.9 1.8-4 1.8-1.3.1-2.8-1-2.9-2.2-1.6 2.2-3.6 3.3-6.5 2.6-3.3-1.2-3.2-7.1-1.7-9.6.5-1.1 2.1-2 3.4-1.3.5.3.7.8.7 1.3s-.2 1-.4 1.5c-.3.8-1.6 3.4-1.2 4.6.2.7.8 1.1 1.4 1.1 1.1-.1 1.8-.4 2.6-1 1.1-1 1.8-3 2.2-4.2.4-.6 1.1-1.6 2-1.3 1.3.4.9 2.3.4 3.3z"/><path class="st5" d="M128.4 114.6c-.1.4-.4.8-.7 1-2.7 2.2-5.8 2.5-9 2.2-2.8-.3-4.2-2.9-4.1-5.6.1-3.5 3.5-5.1 6.3-5.6 0 0 1-.1 1.7-.1.5 0 1.1.3 1.5.9.3.4.3 1.1-.2 1.6-.6.6-1.8.6-2.6.3-.6-.2-2 .4-2.6.9-.9.9-1.5 2.1-1.4 3.4.3 2 2.7 2.7 4.3 2.8 1.8 0 4.9-1.4 5.9-2.5.1-.1.3-.3.7-.1.4.5.2.7.2.8z"/><path class="st6" d="M23.8 83.8c.2-.1.4.1.4.3l1.6 6h.2l2.8-7.4c0-.1.1-.2.2-.2l4.7-1.2c.3-.1.5.2.4.5L30.6 89c-.1.2.1.5.3.5 1.8.2 3 1.2 4 2.7 1 1.5 2.1 3.1 3.2 4.5.2.2.1.5-.2.6l-4.2 1.1c-.1 0-.3 0-.4-.1-.8-.9-1.3-1.9-1.9-2.9-.9-1.5-2-2.7-3.8-2.3l-.9.2 1.6 6.1c0 .2-.1.4-.3.4l-3.7 1c-.2.1-.4-.1-.4-.3l-4-15.4c-.1-.2.1-.4.3-.4l3.6-.9zm18.6 4.4c.4 2.8 2.3 4.7 4.8 4.3 2.5-.4 3.7-2.7 3.2-5.5-.4-2.8-2.3-4.7-4.8-4.4-2.4.4-3.6 2.8-3.2 5.6zm12.9-2.1c.7 5-2.2 9.1-7.8 10-5.4.8-9.2-2.3-9.9-7-.8-5 2.3-9.2 7.7-10 5.4-.9 9.3 2.2 10 7zm7-8.3l.4 5.2c0 .2.2.4.5.4l5.4-.4c.3 0 .4-.2.4-.4l-.4-5.2c0-.2.2-.4.4-.4l3.8-.3c.2 0 .4.2.5.4l1.1 15.7c0 .2-.2.4-.4.4l-4 .3c-.2 0-.4-.2-.5-.4l-.4-5.7c0-.2-.2-.4-.4-.4l-5.4.4c-.2 0-.4.2-.4.4l.4 5.7c0 .2-.2.4-.4.4l-3.8.3c-.2 0-.4-.2-.5-.4l-1.1-15.7c0-.2.2-.4.4-.4l3.8-.3c.3 0 .5.2.6.4zM84.1 82c0 1.6-.3 3.3-.8 4.8-.2.6-.5 1.2-.8 1.8-.2.3.1.7.4.7h3.9c.3 0 .5-.2.5-.5v-8.2c0-.3-.2-.5-.5-.5h-2.3c-.3 0-.5.2-.5.5V82zm7.9-5.1l.1 12.1c0 .3.2.5.5.5l.9.1c.3 0 .5.2.5.5l-.2 7c0 .3-.2.5-.5.5h-2.6c-.3 0-.5-.2-.5-.5l-.2-3.6c0-.3-.2-.5-.5-.5l-9.2.1c-.3 0-.5.2-.5.5l-.2 3.5c0 .3-.2.5-.5.5h-2.6c-.3 0-.5-.2-.5-.5l-.2-7.4 1.3-.1c.2 0 .3-.1.4-.2.7-1.1 1.2-2.3 1.6-3.5.4-1.5.6-3.1.6-4.7V77c0-.3.2-.5.5-.5l11.3-.1c.3 0 .5.3.5.5zm8.6-.1c.3 0 .4.2.4.5l-.3 4c-.2 2.5-.4 5.2-.6 7.7h.1c1.2-2.2 2.6-4.6 3.8-6.4l3.2-5.1c.1-.1.3-.2.4-.2l4.2.3c.2 0 .4.2.4.5l-1 15.7c0 .3-.2.4-.5.4l-3.4-.2c-.3 0-.4-.2-.4-.5l.3-3.9c.2-2.3.3-4.6.8-7h-.1c-1 2.2-2.4 4.6-3.5 6.3l-2.9 4.4c-.1.1-.2.2-.4.2l-5-.3c-.2 0-.4-.2-.4-.5l1-15.7c0-.3.2-.4.4-.4l3.5.2zm18.3 5.4l-3.7-.5c-.3 0-.4-.3-.4-.5l.4-2.8c0-.3.3-.5.5-.4l13 1.8c.3 0 .4.3.4.5l-.4 2.8c0 .3-.3.5-.5.4l-3.8-.5c-.3 0-.5.2-.5.4l-1.6 11.7c0 .3-.3.5-.5.4l-3.6-.5c-.3 0-.4-.3-.4-.6l1.6-11.7c0-.2-.2-.5-.5-.5zm22 10.2l-5.7-1.2c-.3-.1-.5.1-.6.4l-.4 1.8c-.1.3.1.5.4.6l6.4 1.4c.3 0 .4.3.4.6l-.6 2.7c-.1.3-.3.4-.6.4l-11-2.3c-.3-.1-.4-.3-.4-.6l3.3-15.3c.1-.3.3-.4.6-.4l10.6 2.3c.3 0 .4.3.4.6l-.6 2.7c-.1.3-.3.4-.6.4l-6.1-1.3c-.3-.1-.5.1-.6.4l-.3 1.5c-.1.3.1.5.4.6l5.6 1.2c.3 0 .4.3.4.6l-.6 2.7c.1.1-.1.2-.4.2zm9.2.1c.2.1.5.3 1.1.5 1.7.6 3.2.2 3.7-1.2.4-1.1-.2-2.2-1.9-2.8-.8-.3-1.2-.4-1.5-.4l-1.4 3.9zm-2.1-8c.1-.3.4-.4.7-.4 1.2.3 2.9.7 5.4 1.5 2.3.8 3.8 1.8 4.7 3 .8 1.1 1.2 2.8.6 4.5-.5 1.5-1.5 2.7-2.8 3.3-1.8.7-3.9.6-6.3-.2-.5-.2-.9-.4-1.2-.5l-1.6 4.7c-.1.3-.4.5-.8.4l-3.2-1.1c-.3-.1-.5-.4-.4-.7l4.9-14.5z"/><path class="st5" d="M57.3 2.3s-1.8.3-1.3 3.3c.4 3 1.8 3.7 1.8 3.7s4.7 1.4 8.9 7.2c4.8 6.5 6 15 6 15s.1.5.7 1c.4.3.7.5 1.1.5 0 0-2.6-14-6.4-19.6C62.6 5.1 57.3 2.3 57.3 2.3z"/><path class="st5" d="M84.1 46.1c-2.3.9-5.5-1.2-6.4-3.7-1-2.5.1-5.2 2.4-6.1 2.3-.9 4.9.4 5.9 2.8 1 2.5.4 6.1-1.9 7zm-3.3-12.8c-4.1 1-7.6 2.3-10.4-.5-4.6-4.4-12.4-5.2-15.6.7-.2.4-.4.7-.5 1.1 0 .1-.1.2-.1.3l-.3.9c-1.1 3.4-1.1 7-.5 10.1 1.6 6.8 7 12.1 13.8 13.5 2.1.3 4.3.3 6.2.2 6.7-.9 12.2-5.6 14.4-11.8.1-.3.2-.5.2-.8 2.6-11.2-2.3-14.9-7.2-13.7z"/><path class="st6" d="M9.6 93.8c0 1.7-1.3 3-3 3-1.6 0-3-1.3-3-3 0-1.6 1.3-3 3-3 1.6 0 3 1.3 3 3zm158.8 0c0 1.7 1.3 3 3 3s3-1.3 3-3c0-1.6-1.3-3-3-3-1.6.1-3 1.4-3 3z"/></svg>