<svg xmlns="http://www.w3.org/2000/svg" viewBox="0 0 198 193.8" width="150" height="150"><style>.st1{fill:#9a2828}</style><circle cx="104.7" cy="106.9" r="66.7" fill="#f0f0f0"/><path class="st1" d="M58.4 138.5h-11c-1 0-1.8-.5-1.8-1l-2.3-6.8h19.2l-2.3 6.8c0 .5-.8 1-1.8 1zm-25.1 29.7c-4.6 0-8.4-3.8-8.4-8.4s3.8-8.4 8.4-8.4c4.6 0 8.4 3.8 8.4 8.4s-3.8 8.4-8.4 8.4zm0-13.9c-3 0-5.4 2.4-5.4 5.4s2.4 5.4 5.4 5.4c3 0 5.4-2.4 5.4-5.4s-2.4-5.4-5.4-5.4z"/><circle class="st1" cx="33.3" cy="159.8" r="2.1"/><path class="st1" d="M56 168.2c-4.6 0-8.4-3.8-8.4-8.4s3.8-8.4 8.4-8.4c4.6 0 8.4 3.8 8.4 8.4s-3.7 8.4-8.4 8.4zm0-13.9c-3 0-5.4 2.4-5.4 5.4s2.4 5.4 5.4 5.4c3 0 5.4-2.4 5.4-5.4s-2.4-5.4-5.4-5.4z"/><circle class="st1" cx="56" cy="159.8" r="2.1"/><path class="st1" d="M78.8 168.2c-4.6 0-8.4-3.8-8.4-8.4s3.8-8.4 8.4-8.4c4.6 0 8.4 3.8 8.4 8.4s-3.7 8.4-8.4 8.4zm0-13.9c-3 0-5.4 2.4-5.4 5.4s2.4 5.4 5.4 5.4c3 0 5.4-2.4 5.4-5.4s-2.4-5.4-5.4-5.4z"/><circle class="st1" cx="78.8" cy="159.8" r="2.1"/><path class="st1" d="M101.6 168.2c-4.6 0-8.4-3.8-8.4-8.4s3.8-8.4 8.4-8.4c4.6 0 8.4 3.8 8.4 8.4s-3.8 8.4-8.4 8.4zm0-13.9c-3 0-5.4 2.4-5.4 5.4s2.4 5.4 5.4 5.4c3 0 5.4-2.4 5.4-5.4s-2.4-5.4-5.4-5.4z"/><circle class="st1" cx="101.6" cy="159.8" r="2.1"/><path class="st1" d="M124.4 168.2c-4.6 0-8.4-3.8-8.4-8.4s3.8-8.4 8.4-8.4c4.6 0 8.4 3.8 8.4 8.4s-3.8 8.4-8.4 8.4zm0-13.9c-3 0-5.4 2.4-5.4 5.4s2.4 5.4 5.4 5.4 5.4-2.4 5.4-5.4-2.4-5.4-5.4-5.4z"/><circle class="st1" cx="124.4" cy="159.8" r="2.1"/><path class="st1" d="M147.1 168.2c-4.6 0-8.4-3.8-8.4-8.4s3.8-8.4 8.4-8.4c4.6 0 8.4 3.8 8.4 8.4s-3.7 8.4-8.4 8.4zm0-13.9c-3 0-5.4 2.4-5.4 5.4s2.4 5.4 5.4 5.4c3 0 5.4-2.4 5.4-5.4s-2.4-5.4-5.4-5.4z"/><circle class="st1" cx="147.1" cy="159.8" r="2.1"/><path class="st1" d="M169.9 168.2c-4.6 0-8.4-3.8-8.4-8.4s3.8-8.4 8.4-8.4 8.4 3.8 8.4 8.4-3.7 8.4-8.4 8.4zm0-13.9c-3 0-5.4 2.4-5.4 5.4s2.4 5.4 5.4 5.4 5.4-2.4 5.4-5.4-2.4-5.4-5.4-5.4z"/><circle class="st1" cx="169.9" cy="159.8" r="2.1"/><path class="st1" d="M169.4 177H34c-9.3 0-16.8-7.5-16.8-16.8s7.5-16.8 16.8-16.8h135.3c9.3 0 16.8 7.5 16.8 16.8s-7.5 16.8-16.7 16.8zM34 146.5c-7.6 0-13.8 6.2-13.8 13.8S26.4 174 34 174h135.3c7.6 0 13.8-6.2 13.8-13.8s-6.2-13.8-13.8-13.8H34z"/><path class="st1" d="M170.3 185.4h-139c-13.9 0-25.2-11.3-25.2-25.2S17.4 135 31.3 135h139c13.9 0 25.2 11.3 25.2 25.2s-11.3 25.2-25.2 25.2zm-139-45.3c-11.1 0-20.2 9.1-20.2 20.2s9.1 20.2 20.2 20.2h139c11.1 0 20.2-9.1 20.2-20.2s-9.1-20.2-20.2-20.2h-139z"/><path class="st1" d="M91.7 138.5h-11c-1 0-1.8-.5-1.8-1l-2.3-6.8h19.2l-2.3 6.8c-.1.5-.8 1-1.8 1zm-47-6.8s-3.1-8.1 6.2-8.4c5.5-.2 5-4.5 5-4.5s6.3 4.3 6.6 7.6c.3 4.6-1 5.3-1 5.3H44.7z"/><path class="st1" d="M78 131.7s-3.1-8.1 6.2-8.4c5.5-.2 5-4.5 5-4.5s6.3 4.3 6.6 7.6c.3 4.6-1 5.3-1 5.3H78zm33.2 0s-3.1-8.1 6.2-8.4c5.5-.2 5-4.5 5-4.5s6.3 4.3 6.6 7.6c.3 4.6-1 5.3-1 5.3h-16.8zm33.3 0s-3.1-8.1 6.2-8.4c5.5-.2 5-4.5 5-4.5s6.3 4.3 6.6 7.6c.3 4.6-1 5.3-1 5.3h-16.8z"/><path class="st1" d="M125 138.5h-11c-1 0-1.8-.5-1.8-1l-2.3-6.8H129l-2.3 6.8c0 .5-.8 1-1.7 1zm33.2 0h-11c-1 0-1.8-.5-1.8-1l-2.3-6.8h19.2l-2.3 6.8c0 .5-.8 1-1.8 1zM51.4 96.3l3.5 12.9c.5 1.7 1.9 1.7 2.3 0l3.5-13-9.3.1zm10.3-.7l3.5 12.9c.5 1.7 1.9 1.7 2.3 0l3.5-13-9.3.1z"/><path class="st1" d="M70.9 95.4l3.5 12.9c.5 1.7 1.9 1.7 2.3 0l3.5-13-9.3.1zm15.6-30.7h-44c-.8 0-1.5-.7-1.5-1.5s.7-1.5 1.5-1.5h44c.8 0 1.5.7 1.5 1.5s-.7 1.5-1.5 1.5zM47 37.2c-.8 0-1.5-.7-1.5-1.5v-16c0-.8.7-1.5 1.5-1.5s1.5.7 1.5 1.5v16c0 .8-.7 1.5-1.5 1.5zm36 0c-.8 0-1.5-.7-1.5-1.5v-16c0-.8.7-1.5 1.5-1.5s1.5.7 1.5 1.5v16c0 .8-.7 1.5-1.5 1.5z"/><path class="st1" d="M86 58.7H43c-.7 0-1.3-.4-1.4-1.1l-6-21c-.1-.5 0-.9.2-1.3s.7-.6 1.2-.6h55c.5 0 .9.2 1.2.6s.4.9.2 1.3l-6 21c-.1.6-.7 1.1-1.4 1.1zm-41.8-3h40.7l5.1-18H39l5.2 18zM76 96.5H53.5c-5.9 0-10.8-4.8-10.8-10.8V70.6c0-.8.7-1.5 1.5-1.5s1.5.7 1.5 1.5v15.1c0 4.3 3.5 7.8 7.8 7.8H76c4.3 0 7.8-3.5 7.8-7.8V70.6c0-.8.7-1.5 1.5-1.5s1.5.7 1.5 1.5v15.1c-.1 5.9-4.9 10.8-10.8 10.8zm53.9 40.2c-.6 0-1.1-.3-1.4-.9l-4.7-10.8c-.1-.2-.1-.4-.1-.6V97.7c0-6.8 5.5-12.3 12.3-12.3h32.8c6.8 0 12.3 5.5 12.3 12.3v28.2c0 .4-.1.7-.4 1l-7.8 9.2c-.5.6-1.5.7-2.1.2-.6-.5-.7-1.5-.2-2.1l7.4-8.8V97.7c0-5.1-4.1-9.3-9.3-9.3h-32.8c-5.1 0-9.3 4.1-9.3 9.3v26.5l4.6 10.5c.3.8 0 1.6-.8 2h-.5z"/><path class="st1" d="M146 88.2c-.8 0-1.5-.7-1.5-1.5v-6c0-.8.7-1.5 1.5-1.5s1.5.7 1.5 1.5v6c0 .8-.7 1.5-1.5 1.5zm11 0c-.8 0-1.5-.7-1.5-1.5v-6c0-.8.7-1.5 1.5-1.5s1.5.7 1.5 1.5v6c0 .8-.7 1.5-1.5 1.5zm3.5 23.5h-18c-.8 0-1.5-.7-1.5-1.5s.7-1.5 1.5-1.5h18c.8 0 1.5.7 1.5 1.5s-.7 1.5-1.5 1.5zm-76-33h-13c-.8 0-1.5-.7-1.5-1.5s.7-1.5 1.5-1.5h13c.8 0 1.5.7 1.5 1.5s-.7 1.5-1.5 1.5zm0 7h-9c-.8 0-1.5-.7-1.5-1.5s.7-1.5 1.5-1.5h9c.8 0 1.5.7 1.5 1.5s-.7 1.5-1.5 1.5z"/><path class="st1" d="M169 96.2c-.8 0-1.5.7-1.5 1.5v4h-3v-14c0-.8-.7-1.5-1.5-1.5s-1.5.7-1.5 1.5v14h-20v-14c0-.8-.7-1.5-1.5-1.5s-1.5.7-1.5 1.5v14h-3v-2c0-.8-.7-1.5-1.5-1.5s-1.5.7-1.5 1.5v21.1c0 .3.1.5.2.7l8.5 15.4c.3.5.8.8 1.3.8.2 0 .5-.1.7-.2.7-.4 1-1.3.6-2l-8.3-15.1v-15.7h32v19l-7.2 10.9c-.5.7-.3 1.6.4 2.1.3.2.5.3.8.3.5 0 1-.2 1.2-.7l7.5-11.3c.2-.2.3-.5.3-.8V97.7c0-.9-.7-1.5-1.5-1.5zm-5.8-30h-22.6c-.8 0-1.5-.7-1.5-1.5v-4.4c0-.8.7-1.5 1.5-1.5s1.5.7 1.5 1.5v2.9h19.6v-2.9c0-.8.7-1.5 1.5-1.5s1.5.7 1.5 1.5v4.4c0 .8-.7 1.5-1.5 1.5z"/><path class="st1" d="M151.5 83.4c-6.4 0-11.5-5.2-11.5-11.5V65c0-.8.7-1.5 1.5-1.5h20c.8 0 1.5.7 1.5 1.5v6.9c0 6.4-5.2 11.5-11.5 11.5zM143 66.5v5.4c0 4.7 3.8 8.5 8.5 8.5s8.5-3.8 8.5-8.5v-5.4h-17zm18.4-4.8c-1.5 0-2.9-.4-4.2-1.2-1.5.8-3.2 1.2-4.9 1.2-2.1 0-4.1-.6-5.8-1.8-1.3 1.2-3 1.8-4.8 1.8-3.9 0-7.1-3.2-7.1-7.1 0-3.9 3.2-7.1 7.1-7.1.4 0 .7 0 1.1.1 1.6-3.8 5.3-6.4 9.5-6.4 3.7 0 7 2 8.9 5.1 4.3-.1 7.9 3.4 7.9 7.7 0 4.2-3.5 7.7-7.7 7.7zm-4.1-4.5c.4 0 .7.1 1 .4.9.8 2 1.2 3.1 1.2 2.6 0 4.7-2.1 4.7-4.7s-2.1-4.7-4.7-4.7c-.2 0-.5 0-.8.1-.7.1-1.3-.2-1.6-.9-1.2-2.6-3.8-4.3-6.6-4.3-3.4 0-6.3 2.3-7.1 5.6-.1.4-.4.8-.8 1-.4.2-.8.2-1.2.1-.5-.2-1-.3-1.5-.3-2.3 0-4.1 1.9-4.1 4.1s1.9 4.1 4.1 4.1c1.3 0 2.6-.7 3.4-1.7.3-.4.6-.6 1.1-.6.4 0 .9.1 1.2.4 1.4 1.3 3.1 2 5 2 1.5 0 2.9-.4 4.1-1.3.1-.4.4-.5.7-.5z"/></svg>