<svg id="Layer_1" xmlns="http://www.w3.org/2000/svg" viewBox="0 0 168 169.3"><style>.st1{fill:#9a2828}</style><circle cx="85.1" cy="102.5" r="56.6" fill="#f0f0f0"/><path class="st1" d="M73.3 96.2c-.7 0-1.3-.2-1.7-.6L59 84.5c-.8-.7-.9-1.8-.3-2.6l6.5-8.6c.7-.9 2.2-1.2 3.3-.6l9.5 5.2c.4.2.9.5 1.3.8.4.3.5.8.4 1.3L76 94.5c0 .2-.1.4-.3.5-.5.6-1.4 1.1-2.3 1.1.1.1 0 .1-.1.1zM61.1 82.9l12.2 10.7c.1 0 .3 0 .4-.1L77 80.2c-.1 0-.2-.1-.2-.1l-.2-.1-9.3-5.1h-.1l-6.1 8zm-1.4-.3zM96.7 95.9c-.3 0-.7 0-1-.1-1-.3-1.6-.9-1.9-1.7l-4-13.5c-.3-1.1.2-2.2 1.4-2.8l9.6-4.7c1.4-.7 3.2-.3 4.1.8l6.1 8.3c.7 1 .6 2.3-.4 3.1l-11.7 10c-.6.3-1.4.6-2.2.6zM92.3 80l3.9 13.3c.1.1.7.1.9-.1l11.5-9.9-5.9-8c-.1-.1-.6-.2-.9-.1L92.3 80zm16.6 3.6z"/><path class="st1" d="M24.1 151.5c-.7 0-1.3-.6-1.3-1.3l.7-41.7v-.1C24.7 94.8 35.6 83.6 50 81.1h.2L60 81c.7 0 1.3.6 1.3 1.3 0 .7-.6 1.3-1.3 1.3l-9.6.1c-13.2 2.3-23.2 12.6-24.3 25l-.7 41.7c0 .5-.6 1.1-1.3 1.1zM145.8 151.5c-.7 0-1.3-.6-1.3-1.3l-.7-41.7c-1.1-12.4-11-22.6-24.1-25l-9.9-.3c-.7 0-1.3-.6-1.2-1.3 0-.7.6-1.3 1.3-1.2l9.9.4h.2c14.3 2.5 25.1 13.7 26.3 27.3v.1l.7 41.7c.1.7-.4 1.3-1.2 1.3.1 0 .1 0 0 0zM46.2 151.5c-.7 0-1.3-.6-1.3-1.3v-33.9c0-.7.6-1.3 1.3-1.3.7 0 1.3.6 1.3 1.3v33.9c0 .8-.6 1.3-1.3 1.3zM123.2 151.5c-.7 0-1.3-.6-1.3-1.3v-33.9c0-.7.6-1.3 1.3-1.3s1.3.6 1.3 1.3v33.9c0 .8-.6 1.3-1.3 1.3zM89.6 58.9h-9.9c-.7 0-1.3-.6-1.3-1.3s.6-1.3 1.3-1.3h9.9c.7 0 1.3.6 1.3 1.3s-.6 1.3-1.3 1.3zM87.2 51.4h-4.5c-.7 0-1.3-.6-1.3-1.3 0-.7.6-1.3 1.3-1.3h4.5c.7 0 1.3.6 1.3 1.3 0 .7-.6 1.3-1.3 1.3zM106 50.7c-.5 0-.9-.2-1.1-.7-.3-.6-.1-1.4.5-1.7 1.5-.8 1.8-2.3 2.2-5.9l.4-3-1.2.6c-.6.3-1.4 0-1.7-.6-.3-.6 0-1.4.6-1.7l2.1-1c.5-.3 1-.3 1.5-.1.9.4 1.4 1.7 1.2 3l-.4 3.1c-.4 3.4-.8 6.3-3.6 7.8-.1.2-.3.2-.5.2zM64.1 50.7c-.2 0-.4 0-.6-.1-2.8-1.5-3.1-4.4-3.6-7.8l-.4-3.1c-.2-1.3.4-2.5 1.2-3 .5-.3 1.1-.2 1.5.1l2.1 1c.6.3.9 1.1.6 1.7-.3.6-1.1.9-1.7.6l-1.2-.6.4 3c.4 3.6.8 5.1 2.2 5.9.6.3.9 1.1.5 1.7-.1.4-.6.6-1 .6zM69.9 75.4h-.2c-.7-.1-1.2-.7-1.1-1.4l1.5-10.6c.1-.7.8-1.2 1.4-1.1.7.1 1.2.7 1.1 1.4l-1.5 10.6c0 .6-.6 1.1-1.2 1.1zM98.8 76.5c-.6 0-1.2-.5-1.3-1.1L96 64.8c-.1-.7.4-1.3 1.1-1.4.7-.1 1.3.4 1.4 1.1l1.5 10.6c.1.7-.4 1.3-1.1 1.4h-.1zM76.7 84.2c4-.1 12.8 0 16.4 0 .6 0 .9.7.6 1.2l-8.2 12.4c-.3.4-.9.4-1.2 0l-8.2-12.4c-.3-.6 0-1.2.6-1.2z"/><path class="st1" d="M95.9 131.8L85.8 98.6c-.1-.4-.5-.6-.9-.5-.4-.1-.7.1-.9.5l-10 33.2 10.2 13.7c.2.3.5.3.8.3.3.1.6 0 .8-.3l10.1-13.7zM63.6 36.7c-.1 0-.2 0-.4-.1-.5-.1-.9-.5-1-1-.1-.4-.2-.8-.3-1.3-1.3-5.5-3.6-14.8 4.2-21.2 13.5-11 24.3-5.1 33-.4 6 3.3 11.2 6.1 16.3 3.6.7-.3 1.5-.1 1.9.5 1 1.7-1.4 8.8-4.9 11.4-10.9 8.1-24.4 7.8-38-.8-.7-.4-2.7.4-8.2 6.8-1.4 1.8-1.9 2.5-2.6 2.5zM81.8 9.4c-4.3 0-8.9 1.5-14 5.7-6.3 5.1-4.8 12.5-3.6 17.8.1-.1.2-.2.2-.3 3.2-3.8 8.1-9.4 11.5-7.3 12.8 8.1 24.9 8.4 35.1.9 2-1.5 3.4-5 3.9-6.9-5.7 1.8-11.2-1.1-17-4.3-5-2.8-10.3-5.6-16.1-5.6z"/><path class="st1" d="M85 71.4c-2.4 0-4.8-.7-6.9-2-4.9-3.2-10.9-7.2-11-7.2-1.8-1.2-2.8-3.2-2.9-5.3l-.8-23.8c0-.7.5-1.3 1.2-1.3s1.2.5 1.3 1.2l.8 23.8c0 1.3.7 2.5 1.8 3.2 0 0 6.1 4.1 10.9 7.2 3.4 2.2 7.7 2.2 11.1 0 4.9-3.2 10.9-7.2 11-7.2 1.1-.7 1.7-1.9 1.8-3.2l.8-25.1c0-.7.6-1.3 1.3-1.2.7 0 1.3.6 1.2 1.3l-.8 25.1c-.1 2.1-1.1 4.1-2.9 5.3-.1 0-6.1 4.1-11 7.2-2.1 1.3-4.5 2-6.9 2z"/><path class="st1" d="M78.8 45.9h-9.1c-2.5 0-4.6-2.1-4.6-4.6v-7.1c0-.7.6-1.3 1.3-1.3H83c.7 0 1.3.6 1.3 1.3v6.3c0 2.9-2.5 5.4-5.5 5.4zM67.7 35.4v5.9c0 1.1.9 2.1 2.1 2.1h9.1c1.6 0 2.9-1.3 2.9-2.9v-5H67.7zM100.9 45.9h-9.1c-3 0-5.4-2.4-5.4-5.4v-6.3c0-.7.6-1.3 1.3-1.3h16.6c.7 0 1.3.6 1.3 1.3v7.1c-.1 2.5-2.2 4.6-4.7 4.6zm-12-10.5v5c0 1.6 1.3 2.9 2.9 2.9h9.1c1.1 0 2.1-.9 2.1-2.1v-5.9H88.9zM74.6 26.9c-.2 0-.5-.1-.7-.2-.3-.2-6.4-4.2-6.2-9.9 0-1.2.2-2.3.4-3.4.1-.7.8-1.1 1.5-1 .7.1 1.1.8 1 1.5-.2.9-.3 1.9-.4 3-.2 4.3 5 7.6 5 7.7.6.4.8 1.2.4 1.8-.1.2-.6.5-1 .5zM116.6 120H98c-.7 0-1.3-.3-1.3-1s.6-1 1.3-1h18.7c.7 0 1.3.3 1.3 1s-.7 1-1.4 1z"/><g><path class="st1" d="M71.7 120H53c-.7 0-1.3-.3-1.3-1s.6-1 1.3-1h18.7c.7 0 1.3.3 1.3 1s-.6 1-1.3 1z"/></g><g><path class="st1" d="M86.9 36h-3.4c-.7 0-1.3-.3-1.3-1s.6-1 1.3-1h3.4c.7 0 1.3.3 1.3 1s-.6 1-1.3 1z"/></g></svg>