<svg id="Layer_1" xmlns="http://www.w3.org/2000/svg" viewBox="0 0 177.3 56.4"><style>.st4{fill:#97201d}.st5{fill:#322b21}</style><path class="st4" d="M58.4 35c-2.6 1.1-4.2-1.5-7-.2-3 1.3-2.9 6.3-.6 8.8 1.8 1.9 6.5 1.9 9.3.6.8-.4 1.5-1 2.4-.9 0 .3-.2.5-.4.6-4.7 4-10.1 3.2-13.3 1-4.1-2.8-3.5-9.8.3-13.3 2.1-1.9 5.4-2.8 8-2.8 1.5 0 3.2 1.1 3.3 2.7.1 1.1 0 1.4-.3 2-.6 1.2-1.7 1.5-1.7 1.5z"/><path class="st4" d="M63.1 43.1c.7-.3 2.7-2.1 2.9-3.5.1-.7-.6-1.1-1.3-.7-1.2.7-1.9 2.7-1.6 4.2zm.4 1c.1.5.4.7.8.9 2.1.8 3.4.3 4.9-.1.9-.3 2.7-1.3 3.4-1.3.3-.1.1.2.2.4-1.7 1.8-6.2 3.2-8.7 3-2.7-.1-4-2.1-4.1-4.4-.1-2.2 1.1-4.7 3.2-5.7 2-1.1 4.8-1.2 5.7.2 1.7 2.5-1.3 7.3-4.9 7.2l-.5-.2z"/><path class="st4" d="M84.5 42.4c0 .9.9 1.9 2 1.7 1.7 0 2.7-.9 4.2-1.5.9-.4 1.1 0 .3.6-1.6 1.5-3.3 2.4-5.4 2.4h-.2c-2.6-.3-3.5-1.8-3.7-3.7l-.1-.7c-.2-1.1-.4-1.5-1-1.5-.8 0-3 2.7-3.8 4.1-1 1.8-1.5 3.3-2.3 5.6-1 3.1-1.2 5.9-3 5.7-.1 0-.2-.1-.3-.1-1-.3-.9-2.4-.7-4.1.8-5.7 2-13.2 3.6-18.1.4-1.2 1.4-2.2 2.7-2.2.9 0 1.6.7 1.6 2.3v.1c0 1.4-2.9 6.5-3.6 10.4 1.9-4.6 4.5-7.5 6-7.4 2.8.2 3.5 3.7 3.7 6.4z"/><path class="st4" d="M96 43.5s0-.1 0 0c-.2-.8-.9-1.2-1.5-1.4-.4-.1-.5.5-.3.7.3.5 1.8.7 1.8.7zm-3.9-5.7s1.4-.3 2.8-1.3c1.6-1.2 2.9-3.6 1.8-4.3-.9-.5-2.1 1.2-2.8 2.3-.5.7-1.8 3.3-1.8 3.3zm-7.5-.5c.4.2 2.2.6 3.5.8.8.1 1.5.1 1.5.1s1.6-5.8 5-8.1c1.2-.9 3.5-1.4 4.3-.1.7 1.2.7 2.7.4 4.1-.8 3.6-4.5 5.5-7.6 6.2-.1 1 .1 2 .4 2.9.6 1.2 1.2 1.8 2.1 1.8.5 0 .8-.4.8-.4s-.4-.1-.9-.3c-.7-.3-1.6-1-1.6-1.7 0-.3 0-.6.6-1.2 1.1-1 3.9.4 4.1 2 1.1-.2 2.1-.5 3-.8.2-.1.1.1.1.2-.3.7-1.7 1.2-3.2 1.4v.1s-.2 1.9-1.7 2.5c-.6.2-1.4.4-2.3.3-.8-.1-1.1-.3-1.9-.8-2-1.3-2-5.8-2-5.8s-2-.5-2.7-1c-.3-.2-1.6-1.1-2.1-1.7-.2-.4 0-.6.2-.5z"/><path class="st4" d="M111.4 41.3c-.3.7-.5 1.5-.5 2.3 0 .8.5 1.6 1.4 1.9 1.2.1 2.8-1.3 3.4-1.8 1.1-.4.1.7-.3 1-.8.6-2.9 1.8-4 1.8-1.3.1-2.8-1-2.9-2.2-1.6 2.2-3.6 3.3-6.5 2.6-3.3-1.2-3.2-7.1-1.7-9.6.5-1.1 2.1-2 3.4-1.3.5.3.7.8.7 1.3s-.2 1-.4 1.5c-.3.8-1.6 3.4-1.2 4.6.2.7.8 1.1 1.4 1.1 1.1-.1 1.8-.4 2.6-1 1.1-1 1.8-3 2.2-4.2.4-.6 1.1-1.6 2-1.3 1.3.4.9 2.4.4 3.3z"/><path class="st4" d="M128.4 43.8c-.1.4-.4.8-.7 1-2.7 2.2-5.8 2.5-9 2.2-2.8-.3-4.2-2.9-4.1-5.6.1-3.5 3.5-5.1 6.3-5.6 0 0 1-.1 1.7-.1.5 0 1.1.3 1.5.9.3.4.3 1.1-.2 1.6-.6.6-1.8.6-2.6.3-.6-.2-2 .4-2.6.9-.9.9-1.5 2.1-1.4 3.4.3 2 2.7 2.7 4.3 2.8 1.8 0 4.9-1.4 5.9-2.5.1-.1.3-.3.7-.1.4.4.2.7.2.8z"/><path class="st5" d="M23.8 13c.2-.1.4.1.4.3l1.6 6h.2l2.8-7.4c0-.1.1-.2.2-.2l4.7-1.2c.3-.1.5.2.4.5l-3.6 7.3c-.1.2.1.5.3.5 1.8.2 3 1.2 4 2.7 1 1.5 2.1 3.1 3.2 4.5.2.2.1.5-.2.6l-4.2 1.1c-.1 0-.3 0-.4-.1-.8-.9-1.3-1.9-1.9-2.9-.9-1.5-2-2.7-3.8-2.3l-.9.2 1.6 6.1c0 .2-.1.4-.3.4l-3.7 1c-.2.1-.4-.1-.4-.3l-4-15.4c-.1-.2.1-.4.3-.4l3.7-1zM42.4 17.3c.4 2.8 2.3 4.7 4.8 4.3 2.5-.4 3.7-2.7 3.2-5.5-.4-2.8-2.3-4.7-4.8-4.4-2.4.4-3.6 2.8-3.2 5.6zm12.9-2c.7 5-2.2 9.1-7.8 10-5.4.8-9.2-2.3-9.9-7-.8-5 2.3-9.2 7.7-10 5.4-.9 9.3 2.2 10 7zM62.3 7l.4 5.2c0 .2.2.4.5.4l5.4-.4c.3 0 .4-.2.4-.4l-.4-5.2c0-.2.2-.4.4-.4l3.8-.3c.2 0 .4.2.5.4L74.4 22c0 .2-.2.4-.4.4l-4 .2c-.2 0-.4-.2-.5-.4l-.4-5.7c0-.2-.2-.4-.4-.4l-5.4.4c-.2 0-.4.2-.4.4l.4 5.7c0 .2-.2.4-.4.4l-3.8.3c-.2 0-.4-.2-.5-.4l-1-15.6c0-.2.2-.4.4-.4l3.8-.3c.2-.1.4.1.5.4zM84.1 11.2c0 1.6-.3 3.3-.8 4.8-.2.6-.5 1.2-.8 1.8-.2.3.1.7.4.7h3.9c.3 0 .5-.2.5-.5V9.8c0-.3-.2-.5-.5-.5h-2.3c-.3 0-.5.2-.5.5v1.4zM92 6.1l.1 12.1c0 .3.2.5.5.5l.9.1c.3 0 .5.2.5.5l-.2 7c0 .3-.2.5-.5.5h-2.6c-.3 0-.5-.2-.5-.5l-.2-3.6c0-.3-.2-.5-.5-.5l-9.2.1c-.3 0-.5.2-.5.5l-.2 3.5c0 .3-.2.5-.5.5h-2.6c-.3 0-.5-.2-.5-.5l-.2-7.4 1.3-.1c.2 0 .3-.1.4-.2.7-1.1 1.2-2.3 1.6-3.5.4-1.5.6-3.1.6-4.7V6.2c0-.3.2-.5.5-.5l11.3-.1c.3 0 .5.2.5.5zM100.6 6c.3 0 .4.2.4.5l-.3 4c-.2 2.5-.4 5.2-.6 7.7h.1c1.2-2.2 2.6-4.6 3.8-6.4l3.2-5.1c.1-.1.3-.2.4-.2l4.2.3c.2 0 .4.2.4.5l-1 15.7c0 .3-.2.4-.5.4l-3.4-.2c-.3 0-.4-.2-.4-.5l.3-3.9c.2-2.3.3-4.6.8-7h-.1c-1 2.2-2.4 4.6-3.5 6.3l-2.9 4.4c-.1.1-.2.2-.4.2l-5-.3c-.2 0-.4-.2-.4-.5l1-15.7c0-.3.2-.4.4-.4l3.5.2zM118.9 11.4l-3.7-.5c-.3 0-.4-.3-.4-.5l.4-2.8c0-.3.3-.5.5-.4l13 1.8c.3 0 .4.3.4.5l-.4 2.8c0 .3-.3.5-.5.4l-3.8-.5c-.3 0-.5.2-.5.4l-1.6 11.7c0 .3-.3.5-.5.4l-3.6-.5c-.3 0-.4-.3-.4-.6l1.6-11.7c0-.3-.2-.5-.5-.5zM140.9 21.5l-5.7-1.2c-.3-.1-.5.1-.6.4l-.4 1.8c-.1.3.1.5.4.6l6.4 1.4c.3 0 .4.3.4.6l-.6 2.7c-.1.3-.3.4-.6.4l-11-2.3c-.3-.1-.4-.3-.4-.6l3.3-15.3c.1-.3.3-.4.6-.4l10.6 2.3c.3 0 .4.3.4.6l-.6 2.7c-.1.3-.3.4-.6.4l-6.1-1.3c-.3-.1-.5.1-.6.4l-.3 1.5c-.1.3.1.5.4.6l5.6 1.2c.3 0 .4.3.4.6l-.6 2.7c.1.1-.1.3-.4.2zM150.1 21.6c.2.1.5.3 1.1.5 1.7.6 3.2.2 3.7-1.2.4-1.1-.2-2.2-1.9-2.8-.8-.3-1.2-.4-1.5-.4l-1.4 3.9zm-2.1-7.9c.1-.3.4-.4.7-.4 1.2.3 2.9.7 5.4 1.5 2.3.8 3.8 1.8 4.7 3 .8 1.1 1.2 2.8.6 4.5-.5 1.5-1.5 2.7-2.8 3.3-1.8.7-3.9.6-6.3-.2-.5-.2-.9-.4-1.2-.5l-1.6 4.7c-.1.3-.4.5-.8.4l-3.2-1.1c-.3-.1-.5-.4-.4-.7l4.9-14.5zM9.6 22.9c0 1.7-1.3 3-3 3-1.6 0-3-1.3-3-3 0-1.6 1.3-3 3-3 1.6 0 3 1.4 3 3zM168.4 23c0 1.7 1.3 3 3 3s3-1.3 3-3c0-1.6-1.3-3-3-3-1.6 0-3 1.4-3 3z"/></svg>