<svg xmlns="http://www.w3.org/2000/svg" viewBox="0 0 161.5 139"><style>.st1{fill:#9a2828}.st3{fill:#fff}</style><circle cx="82.2" cy="71.2" r="62.8" fill="#f0f0f0"/><path class="st1" d="M41.8 77.8c-.6 0-1.1-.4-1.3-.9-1.8-5.3-2.8-10.8-2.8-16.5 0-.8.6-1.4 1.4-1.4h90c.8 0 1.4.6 1.4 1.4 0 5.2-.8 10.4-2.4 15.3-.2.7-1 1.2-1.8.9-.7-.2-1.2-1-.9-1.8 1.3-4.2 2.1-8.6 2.2-13h-87c.1 4.9 1 9.6 2.6 14.1.3.7-.1 1.5-.9 1.8-.1.1-.3.1-.5.1zM84.9 107.5c-6.9 0-22-3-22.7-3.2-.8-.2-1.3-.9-1.1-1.7.2-.8.9-1.3 1.7-1.1.2 0 15.5 3.1 22.1 3.1 7.4 0 14.7-.9 21.1-2.7.8-.2 1.5.2 1.7 1 .2.8-.2 1.5-1 1.7-6.5 2-14.1 2.9-21.8 2.9z"/><path class="st1" d="M127 69.3H94.2c-.8 0-1.4-.6-1.4-1.4 0-.8.6-1.4 1.4-1.4H127c.8 0 1.4.6 1.4 1.4 0 .8-.6 1.4-1.4 1.4zM115.3 78.5H99.8c-.8 0-1.4-.6-1.4-1.4 0-.8.6-1.4 1.4-1.4h15.5c.8 0 1.4.6 1.4 1.4.1.8-.6 1.4-1.4 1.4zM106.7 87.8H104c-.8 0-1.4-.6-1.4-1.4 0-.8.6-1.4 1.4-1.4h2.7c.8 0 1.4.6 1.4 1.4 0 .8-.6 1.4-1.4 1.4z"/><path class="st1" d="M128.5 120.1c-.8 0-1.5 0-2.3-.1-14.1-1.1-22.5-10.7-22.5-25.6 0-10.6 6.8-18.4 17.8-20.4 5.3-1 7.5.6 8.9 1.6.2.2.5.4.6.4 1.6 0 2.9-.2 4.1-.3h.3c.8-.1 1.5.4 1.6 1.2.1.8-.4 1.5-1.2 1.6h-.3c-1.2.2-2.6.4-4.5.4-.9 0-1.6-.5-2.2-.9-1.1-.8-2.6-1.9-6.7-1.1-9.7 1.8-15.4 8.4-15.4 17.6 0 5 1.4 21.3 19.9 22.8 8.3.7 15.4-2.8 19.6-9.4 4.3-6.8 4.5-15.4.7-22-.4-.7-.2-1.5.5-1.9.7-.4 1.5-.2 1.9.5 4.4 7.5 4.1 17.3-.8 24.9-4.4 6.8-11.6 10.7-20 10.7z"/><path class="st3" d="M116.6 83.5c1.8-1.7 3.4-2.5 4.7-2.8"/><path class="st1" d="M116.6 84.9c-.4 0-.8-.2-1-.5-.5-.6-.5-1.5.1-2 1.7-1.6 3.5-2.6 5.3-3.2.7-.2 1.5.2 1.7 1 .2.7-.2 1.5-1 1.7-1.4.4-2.8 1.2-4.2 2.5-.2.4-.6.5-.9.5zM121.8 112.9c-.2 0-.3 0-.5-.1-4.9-1.9-9-6.5-10.7-12-1.5-4.6-1-9.2 1.2-12.7.4-.7 1.3-.8 2-.4s.8 1.3.4 2c-1.8 2.7-2.1 6.5-.9 10.3 1.5 4.7 5 8.6 9.1 10.2.7.3 1.1 1.1.8 1.8-.3.5-.8.9-1.4.9zM131.1 79.7c-.7 0-1.3-.6-1.4-1.3-.3-4.4 1.6-9.1 5-12.4 2.9-2.8 6.6-4.1 10-3.7.8.1 1.3.8 1.2 1.6-.1.8-.8 1.3-1.6 1.2-2.6-.3-5.4.8-7.7 3-2.8 2.7-4.4 6.6-4.2 10.1.1.8-.5 1.5-1.3 1.5.1 0 0 0 0 0zM56.7 61.1c-.4 0-.9-.2-1.2-.6-1.1-1.5-1.6-3.4-1.6-5.2 0-5.1 4.2-9.3 9.4-9.3 3.3 0 6.4 1.7 8.1 4.6.8 1.4 1 2 1 3.7 0 .8-.6 1.4-1.4 1.4s-1.4-.6-1.4-1.4c0-1.2 0-1.2-.6-2.2-1.2-2-3.4-3.2-5.7-3.2-3.7 0-6.6 2.9-6.6 6.5 0 1.3.4 2.6 1.1 3.6.4.6.3 1.5-.4 2-.2 0-.5.1-.7.1z"/><path class="st1" d="M60.5 48.1c-.5 0-1-.3-1.3-.8-.6-1.1-.8-2.4-.6-3.6.5-3.4 3.7-5.7 7.1-5.2 2.2.3 4.1 1.8 4.9 3.8.4 1 .6 2.1.4 3.2-.1.8-.8 1.3-1.6 1.2-.8-.1-1.3-.8-1.2-1.6.1-.6 0-1.2-.2-1.7-.5-1.1-1.5-1.9-2.7-2.1-1.9-.3-3.7 1-3.9 2.8-.1.7 0 1.3.3 2s.1 1.5-.6 1.9c-.1 0-.4.1-.6.1zM83.9 49.5c-.8 0-1.4-.6-1.4-1.4 0-5.2 4.2-9.5 9.2-9.5 3.2 0 6.3 1.7 7.9 4.5.8 1.4 1.3 3 1.3 4.6 0 .8-.6 1.4-1.4 1.4-.8 0-1.4-.6-1.4-1.4 0-1.1-.3-2.2-.9-3.2-1.1-1.9-3.2-3.1-5.5-3.1-3.4 0-6.4 3.1-6.4 6.7 0 .8-.6 1.4-1.4 1.4z"/><path class="st1" d="M69.2 49.3c-.8 0-1.4-.6-1.4-1.4 0-4.7 4.2-8.7 9.2-8.7 3.5 0 6.7 2.5 8.2 4.7.4.7.2 1.5-.4 2-.7.4-1.5.2-2-.4-1.1-1.7-3.5-3.5-5.9-3.5-3.4 0-6.4 2.8-6.4 5.9.1.8-.6 1.4-1.3 1.4zM107.2 58.1c-.8 0-1.4-.6-1.4-1.4 0-1.2-.3-2.3-.9-3.3-1.2-2-3.5-3.2-6-3.2-3.8 0-6.9 2.9-6.9 6.5 0 .8-.6 1.4-1.4 1.4-.8 0-1.4-.6-1.4-1.4 0-5.1 4.4-9.3 9.8-9.3 3.4 0 6.6 1.8 8.4 4.6.9 1.4 1.4 3.1 1.4 4.8-.1.6-.8 1.3-1.6 1.3z"/><path class="st1" d="M80.1 42c-.7 0-1.2-.5-1.4-1.1-.4-2.1-.1-4.3 1-6 1.1-1.7 2.8-2.9 4.9-3.4 2.7-.6 5.5.5 7.3 2.7.9 1.1 1.6 2.4 1.8 3.8.2.8-.3 1.5-1.1 1.7-.8.2-1.5-.3-1.7-1.1-.2-1-.6-1.9-1.2-2.6-1.2-1.4-2.9-2.1-4.6-1.7-1.3.3-2.4 1-3 2.1-.7 1.1-.9 2.5-.7 3.9.2.8-.3 1.5-1.1 1.7h-.2z"/><path class="st1" d="M106.1 42.5h-.1c-.8-.1-1.3-.8-1.3-1.5.1-1 0-2-.4-2.9-.7-1.7-2.2-2.9-3.9-3.1-2.8-.3-5.1 1.8-5.4 4.7-.1.8-.8 1.3-1.5 1.3-.8-.1-1.3-.8-1.3-1.5.5-4.5 4.2-7.7 8.5-7.2 2.7.3 5.1 2.1 6.3 4.8.6 1.3.8 2.8.6 4.3-.2.6-.8 1.1-1.5 1.1zM119.4 48h-.4c-.8-.2-1.2-1-1-1.7.2-.6.2-1.3 0-1.9-.3-1.2-1.1-2-2.1-2.3-.9-.2-1.7-.2-2.3.2-.7.4-1.1 1-1.4 1.9-.2.8-1 1.2-1.7 1-.8-.2-1.2-1-1-1.7.4-1.6 1.4-2.9 2.8-3.6 1.3-.7 2.8-.8 4.4-.4 2 .5 3.6 2.2 4.2 4.3.3 1.1.2 2.2 0 3.3-.3.5-.9.9-1.5.9z"/><path class="st1" d="M123.5 57.4c-.2 0-.3 0-.5-.1-.7-.3-1.1-1.1-.8-1.8.3-.7.4-1.6.2-2.3-.3-1.6-1.4-3-2.9-3.6-1.2-.5-2.4-.4-3.6 0-1.1.5-2 1.3-2.4 2.5-.3.7-1.1 1.1-1.8.8-.7-.3-1.1-1.1-.8-1.8.7-1.8 2.1-3.3 4-4 1.8-.8 3.8-.8 5.7-.1 2.4 1 4.2 3.2 4.7 5.7.2 1.3.1 2.6-.4 3.8-.3.6-.9.9-1.4.9zM70.5 60.6c-.8 0-1.4-.6-1.4-1.4-.2-6.1 4.7-11.1 10.9-11.3 4-.1 7.7 1.9 9.8 5.1 1.1 1.7 1.6 3.6 1.7 5.5 0 .8-.6 1.4-1.4 1.4-.8 0-1.4-.6-1.4-1.4 0-1.5-.5-2.9-1.3-4.1-1.6-2.4-4.4-3.9-7.3-3.8-4.6.1-8.3 3.9-8.1 8.4-.1.9-.7 1.6-1.5 1.6z"/><path class="st1" d="M113 50.2h-.3c-.8-.2-1.2-.9-1.1-1.7.1-.5.1-.5-.2-1.2l-.2-.4c-.7-1.5-2.2-2.7-4.1-3.1-2.9-.6-5.7.8-6.2 3.1-.2.8-.9 1.3-1.7 1.1-.8-.2-1.3-.9-1.1-1.7.8-3.9 5.1-6.2 9.5-5.3 2.8.6 5.1 2.4 6.2 4.8l.2.3c.3.8.7 1.5.4 2.9-.1.8-.7 1.2-1.4 1.2zM123.3 60.9c-.8 0-1.4-.6-1.4-1.4 0-1.1-.3-2.2-.8-3.1-1.1-1.9-3.1-3-5.2-3-3.4 0-6.1 2.8-6.1 6.2 0 .8-.6 1.4-1.4 1.4-.8 0-1.4-.6-1.4-1.4 0-5 4-9 8.9-9 3.1 0 6.1 1.7 7.7 4.5.8 1.4 1.2 3 1.2 4.6-.1.6-.7 1.2-1.5 1.2zM48.9 61.5c-.3 0-.6-.1-.9-.3-.1-.1-3.3-2.8-2.9-7.3.2-2.4 1.4-5.6 4.2-7.4 1.7-1.1 4.6-2.1 8.9-.5.7.3 1.1 1.1.8 1.8-.3.7-1.1 1.1-1.8.8-2.6-.9-4.8-.9-6.4.2-2 1.3-2.8 3.6-3 5.3-.2 3.1 1.9 4.9 1.9 4.9.6.5.7 1.4.2 2-.2.3-.6.5-1 .5zM146 86.3c-.7 0-1.4 0-2-.1-6.9-1.2-11.9-12.8-12.4-14.1-.2-.4-.1-.8.1-1.2.2-.4.5-.6.9-.7.1 0 2.7-.6 8.6-.3 10.1.5 15.9 12.4 16.2 12.9.2.4.2.8 0 1.2-.2.4-.5.7-.9.8-.3 0-6.2 1.5-10.5 1.5zm-11-13.6c1.8 3.8 5.6 10 9.5 10.7 2.3.4 6.7-.4 9.5-1-1.8-3-6.5-9.4-12.9-9.7-2.8-.1-4.8-.1-6.1 0zM67.3 108.6c-.6 4.3 2.4 8.3 6.8 8.9 7 .9 11-2 11.3-8.1.2-4.3-2.2-5.1-6.6-5.7-.6-.1-3.8-1.8-4.4-1.8-4.5-.5-6.6 3-7.1 6.7zM88.7 117.8c1.2 4.2 4.4 5.8 8.8 5.5 4.7-.3 8.6-4.5 7.5-9.1-2-8.4-6.3-4.4-10.6-4.4-6.6 0-6.9 3.9-5.7 8z"/><path class="st1" d="M95.8 112.6c-.4 0-.8-.2-1.1-.6-.2-.3-5-6.7-5.9-11.5-.3-1.9-.6-6.2-.7-9-1.7 1.2-4 3.1-5.9 5.6-3.1 4.1-2.9 8.6-2.9 8.6.1.8-.5 1.4-1.3 1.5-.8.1-1.4-.5-1.5-1.3 0-.2-.3-5.6 3.4-10.5 3.6-4.8 8.6-7.5 8.8-7.6.4-.2.9-.2 1.4 0 .4.2.7.7.7 1.2 0 .1.3 8.4.8 11 .8 4.2 5.3 10.3 5.4 10.3.5.6.3 1.5-.3 2-.3.2-.6.3-.9.3z"/><path class="st1" d="M83.8 89.6c-1.7 0-3.4-.2-4.8-.9-3.7-1.9-8.8-5.1-9.1-5.2-.4-.3-.7-.8-.7-1.3s.3-1 .8-1.2c1.2-.6 12.3-6 16.6-1.7 3.9 4 4.6 7.5 4.6 7.7.1.7-.3 1.4-1 1.6-.1.1-3.1 1-6.4 1zm-10.1-7.1c1.8 1.1 4.4 2.6 6.5 3.7 2.1 1 5.6.6 7.8.2-.5-1.2-1.5-3-3.4-5-1.7-1.9-7.1-.4-10.9 1.1z"/><path class="st1" d="M90.3 89.4c-.5 0-1-.3-1.3-.8-.3-.7 0-1.5.7-1.9l7.1-3.5c.7-.3 1.5 0 1.9.7.3.7 0 1.5-.7 1.9l-7.1 3.5c-.2.1-.4.1-.6.1z"/><circle class="st1" cx="62.7" cy="51.5" r="1.2"/><circle class="st1" cx="79.1" cy="54.7" r="1.3"/><circle class="st1" cx="99.8" cy="55.6" r="1.3"/><circle class="st1" cx="76.3" cy="47.2" r="1.3"/><path class="st1" d="M44.3 117c-1.7 0-3.3-.2-4.9-.6-.8-.2-1.2-1-1-1.7.2-.8.9-1.2 1.7-1 1.4.3 2.8.5 4.2.5 9.6 0 17.4-7.8 17.4-17.4s-7.8-17.4-17.4-17.4-17.4 7.8-17.4 17.4c0 1.1.1 2.2.3 3.3.1.8-.4 1.5-1.1 1.7-.8.1-1.5-.4-1.7-1.1-.2-1.3-.4-2.6-.4-3.8 0-11.1 9.1-20.2 20.2-20.2s20.2 9.1 20.2 20.2S55.5 117 44.3 117z"/><ellipse transform="rotate(-14.567 41.488 83.201)" class="st1" cx="41.5" cy="83.2" rx="3.1" ry="1.9"/><ellipse transform="rotate(-29.105 53.561 96.56)" class="st1" cx="53.6" cy="96.6" rx="1.4" ry="1.4"/><ellipse transform="rotate(-29.105 58.034 92.993)" class="st1" cx="58" cy="93" rx="1.4" ry="1.4"/><ellipse transform="rotate(-29.105 54.231 105.048)" class="st1" cx="54.2" cy="105" rx="1.6" ry="1.6"/><ellipse transform="rotate(-29.105 58.771 100.118)" class="st1" cx="58.8" cy="100.1" rx="1.4" ry="1.4"/><ellipse transform="rotate(-34.835 50.073 109.438)" class="st1" cx="50.1" cy="109.4" rx="1.1" ry="1.1"/><path class="st1" d="M32.5 123.5c-5.6 0-11.8-5.2-14-9.9-3.6-7.6 4.9-11.7 7.6-13 2.9-1.4 10.5-5 14.2 2.7 2.7 5.6 2 16.5-4.4 19.5-1.1.5-2.2.7-3.4.7zm.9-22.1c-1.6 0-3.5.6-6.1 1.8-7.7 3.6-7.5 6.7-6.3 9.2 2.2 4.6 9.2 10 13.7 7.8 4.2-2 5.3-10.9 3-15.7-1-2.1-2.3-3.1-4.3-3.1z"/><ellipse transform="rotate(-19.221 23.614 111.734)" class="st1" cx="23.6" cy="111.7" rx="1.1" ry="2.1"/><ellipse transform="rotate(-13.344 34.997 109.426)" class="st1" cx="35" cy="109.4" rx="1.1" ry="2.1"/><ellipse transform="rotate(-21.14 29.739 107.453)" class="st1" cx="29.7" cy="107.4" rx="1.1" ry="2.1"/><ellipse transform="rotate(-18.54 34.04 116.162)" class="st1" cx="34" cy="116.2" rx="1.1" ry="2.1"/><ellipse transform="rotate(-18.414 28.484 115.205)" class="st1" cx="28.5" cy="115.2" rx="1.1" ry="2.1"/><path class="st1" d="M12.6 102.3s1.2 4.5 5.1 4.6c1.8.1 3.3-.9 3.3-.9l7.1-4.7s-10.1-2.3-15.5 1z"/><path class="st1" d="M34.1 93.7s.4 3.5-.4 4.7c-.8 1.2-2.3 1.6-2.3 1.6l-5.4 1.6-1.3.4c.1.1 4.5-6.6 9.4-8.3z"/><path class="st1" d="M25.5 102.2c-.6 0-1.2-.4-1.4-1.1 0 0-.6-1.8-3.7-3.4-3.4-1.7-7.1-1.2-7.1-1.2-.8.1-1.5-.4-1.6-1.2-.1-.8.4-1.5 1.2-1.6.2 0 4.6-.7 8.8 1.4 4.3 2.2 5.1 4.9 5.2 5.2.2.8-.3 1.5-1 1.7-.1.2-.2.2-.4.2z"/><circle class="st3" cx="72.7" cy="107.4" r="2.5"/><path class="st1" d="M49.2 48.7c-.3 0-.6-.1-.8-.3-.3-.2-7.2-5.5-6.3-15.2.5-5 1.2-7.6 1.2-7.7.2-.7.9-1.1 1.6-1 .4.1 9 1.7 15.9 7.5 7.1 6 6.5 10.4 6.4 10.9-.2.8-.9 1.3-1.7 1.1-.8-.1-1.2-.9-1.1-1.6 0-.1.3-3.4-5.4-8.2-4.8-4.1-10.7-5.9-13.3-6.6-.2 1.2-.6 3.1-.8 5.9-.8 8.2 5.1 12.6 5.1 12.7.6.5.8 1.3.3 2-.2.3-.7.5-1.1.5z"/><path class="st1" d="M58.3 47.5c-.6 0-1.1-.3-1.3-.9 0 0-1.1-2.9-2.7-6.5-1.4-3.3-5.3-7.5-5.3-7.6-.5-.6-.5-1.5.1-2s1.5-.5 2 .1c.2.2 4.2 4.6 5.9 8.4 1.5 3.6 2.7 6.5 2.7 6.6.3.7-.1 1.5-.8 1.8-.3.1-.5.1-.6.1z"/><circle class="st1" cx="139.8" cy="114.8" r="7.5"/><g><path class="st1" d="M44 59.8s-.1 0 0 0c-.3 0-5.1-.4-9.7-4.4-4.7-4.1-4.6-6.8-4.5-7.3 0-.3.2-.6.4-.8.2-.2 2.4-2.2 7.1-2.4 4.5-.2 9.7 1.1 9.9 1.1.8.2 1.2 1 1 1.7-.2.8-1 1.2-1.7 1 0 0-5-1.2-9.1-1.1-2.5.1-4 .8-4.8 1.2.2.7 1 2.2 3.4 4.3 3.9 3.4 8 3.7 8 3.7.8.1 1.4.7 1.3 1.5 0 1-.6 1.5-1.3 1.5z"/></g></svg>
